<svg width="1290" height="213" viewBox="0 0 1290 213" fill="none" xmlns="http://www.w3.org/2000/svg">
<g opacity="0.5">
<path d="M913.049 156.129L894.134 169.32L862.672 180.063L843.104 210.374H822L841.568 180.063L873.03 169.32L902.19 148.985L913.049 156.129Z" fill="url(#paint0_linear_142_2)"/>
<path d="M945.931 177.766L970.87 180.067L991.973 193.88L1004.25 210.378H843.103L862.671 180.067L894.133 169.324L913.049 156.133L945.931 177.766Z" fill="url(#paint1_linear_142_2)"/>
<path d="M1188.33 52.7578L1133.36 91.0898L1041.94 122.308L985.081 210.385H923.762L980.622 122.308L1072.04 91.0898L1156.78 32L1188.33 52.7578Z" fill="url(#paint2_linear_142_2)"/>
<path d="M1188.33 52.7578L1133.36 91.0898L1041.94 122.308L985.081 210.385H923.762L980.622 122.308L1072.04 91.0898L1156.78 32L1188.33 52.7578Z" fill="url(#paint3_linear_142_2)"/>
<path d="M1283.88 115.625L1356.35 122.314L1417.67 162.451L1453.34 210.393H965.251L1013.25 122.315L1133.37 91.0977L1157.67 32.5938L1283.88 115.625Z" fill="url(#paint4_linear_142_2)"/>
</g>
<g opacity="0.4">
<path d="M131.717 147.788L104.354 163.493L58.8379 176.283L30.5293 212.371H0L28.3086 176.283L73.8232 163.493L116.008 139.282L131.717 147.788Z" fill="url(#paint5_linear_142_2)"/>
<path d="M179.285 173.547L215.364 176.288L245.893 192.733L263.655 212.376H30.5283L58.8369 176.288L104.352 163.497L131.716 147.791L179.285 173.547Z" fill="url(#paint6_linear_142_2)"/>
<path d="M529.958 24.7139L450.439 70.3525L318.182 107.52L235.924 212.384H147.215L229.474 107.52L361.731 70.3525L484.312 0L529.958 24.7139Z" fill="url(#paint7_linear_142_2)"/>
<path d="M529.958 24.7139L450.439 70.3525L318.182 107.52L235.924 212.384H147.215L229.474 107.52L361.731 70.3525L484.312 0L529.958 24.7139Z" fill="url(#paint8_linear_142_2)"/>
<path d="M668.183 99.5635L773.021 107.527L861.73 155.314L913.344 212.393H207.235L276.675 107.528L450.44 70.3613L485.602 0.707031L668.183 99.5635Z" fill="url(#paint9_linear_142_2)"/>
</g>
<defs>
<linearGradient id="paint0_linear_142_2" x1="901.32" y1="150.755" x2="830.084" y2="209.087" gradientUnits="userSpaceOnUse">
<stop stop-color="#FDFDFD"/>
<stop offset="1" stop-color="#616A76"/>
</linearGradient>
<linearGradient id="paint1_linear_142_2" x1="943.14" y1="156.119" x2="865.201" y2="219.028" gradientUnits="userSpaceOnUse">
<stop offset="0.0187499" stop-color="#5C5C5C"/>
<stop offset="1" stop-color="#202B38"/>
</linearGradient>
<linearGradient id="paint2_linear_142_2" x1="1056.05" y1="32" x2="1056.05" y2="210.385" gradientUnits="userSpaceOnUse">
<stop stop-color="#94C5FF"/>
<stop offset="1" stop-color="#94C5FF"/>
</linearGradient>
<linearGradient id="paint3_linear_142_2" x1="1154.25" y1="37.1418" x2="947.25" y2="206.641" gradientUnits="userSpaceOnUse">
<stop stop-color="#FDFDFD"/>
<stop offset="1" stop-color="#616A76"/>
</linearGradient>
<linearGradient id="paint4_linear_142_2" x1="1268.25" y1="32.5485" x2="1017.75" y2="219.392" gradientUnits="userSpaceOnUse">
<stop offset="0.0187499" stop-color="#5C5C5C"/>
<stop offset="1" stop-color="#202B38"/>
</linearGradient>
<linearGradient id="paint5_linear_142_2" x1="114.75" y1="141.389" x2="28.2381" y2="227.465" gradientUnits="userSpaceOnUse">
<stop stop-color="#FDFDFD"/>
<stop offset="1" stop-color="#616A76"/>
</linearGradient>
<linearGradient id="paint6_linear_142_2" x1="175.249" y1="147.775" x2="80.3349" y2="240.862" gradientUnits="userSpaceOnUse">
<stop offset="0.0187499" stop-color="#5C5C5C"/>
<stop offset="1" stop-color="#202B38"/>
</linearGradient>
<linearGradient id="paint7_linear_142_2" x1="338.586" y1="0" x2="338.586" y2="212.384" gradientUnits="userSpaceOnUse">
<stop stop-color="#94C5FF"/>
<stop offset="1" stop-color="#94C5FF"/>
</linearGradient>
<linearGradient id="paint8_linear_142_2" x1="480.655" y1="6.12176" x2="229.267" y2="256.243" gradientUnits="userSpaceOnUse">
<stop stop-color="#FDFDFD"/>
<stop offset="1" stop-color="#616A76"/>
</linearGradient>
<linearGradient id="paint9_linear_142_2" x1="645.575" y1="0.653178" x2="335.921" y2="281.295" gradientUnits="userSpaceOnUse">
<stop offset="0.0187499" stop-color="#5C5C5C"/>
<stop offset="1" stop-color="#202B38"/>
</linearGradient>
</defs>
</svg>
